<svg width="24" height="24" viewBox="0 0 24 24" fill="none" xmlns="http://www.w3.org/2000/svg">
<path d="M11.5049 12.5L9.3349 12.4995C8.39122 11.7557 7.25147 11.2494 6.00592 11.071L6.00456 20.3752C7.90445 21.4094 10.2436 22 13.0049 22C17.3268 22 21.1562 19.972 23.521 16.8514C22.7173 15.1653 20.9972 14 19.0049 14L16.1188 13.9992C16.6867 14.8969 17.0049 15.9176 17.0049 17V17.9992L9.00488 18L9.00388 17H16.0049C16.0049 14.5147 13.9902 12.5 11.5049 12.5Z" fill="#050505"/>
<path d="M4.00488 21C4.55717 21 5.00488 20.5523 5.00488 20V11C5.00488 10.4477 4.55717 10 4.00488 10H2.00488C1.4526 10 1.00488 10.4477 1.00488 11V20C1.00488 20.5523 1.4526 21 2.00488 21H4.00488Z" fill="#050505"/>
<path fill-rule="evenodd" clip-rule="evenodd" d="M11 0C9.89543 0 9 0.895431 9 2V9C9 10.1046 9.89543 11 11 11H19C20.1046 11 21 10.1046 21 9V2C21 0.895431 20.1046 0 19 0H11ZM16 2H14V6H16V2Z" fill="#050505"/>
</svg>
