<svg width="24" height="24" viewBox="0 0 24 24" fill="none" xmlns="http://www.w3.org/2000/svg">
<path d="M4.92901 13.3139L7.05033 15.4352L8.46455 14.021L6.34323 11.8997L8.46455 9.77834L11.293 12.6068L12.7072 11.1926L9.87876 8.36413L12.0001 6.24281L14.1214 8.36413L15.5356 6.94992L13.4143 4.82859L16.2427 2.00017C16.6332 1.60964 17.2664 1.60964 17.6569 2.00017L22.6067 6.94992C22.9972 7.34044 22.9972 7.9736 22.6067 8.36413L7.75744 23.2134C7.36692 23.6039 6.73375 23.6039 6.34323 23.2134L1.39348 18.2637C1.00295 17.8731 1.00295 17.24 1.39348 16.8495L4.92901 13.3139Z" fill="#050505"/>
</svg>
