<svg width="24" height="24" viewBox="0 0 24 24" fill="none" xmlns="http://www.w3.org/2000/svg">
<path d="M21.9984 10.3879L21.9982 14.4544C21.998 16.5804 21.9977 18.7065 22.0001 20.8324C22.0006 21.1894 21.786 21.4922 21.4756 21.6188C21.3826 21.6567 21.2859 21.6787 21.1853 21.6825C21.1635 21.6833 21.1416 21.684 21.1197 21.684L20.3194 21.6839C19.7405 21.6839 19.1615 21.6839 18.5825 21.6843C18.3295 21.6844 18.1119 21.6003 17.9334 21.4192C17.8135 21.2976 17.7416 21.1513 17.7133 20.984C17.651 20.6148 17.3508 20.3658 17.0156 20.3121C16.7631 20.2716 16.5345 20.3301 16.3254 20.4763C15.3589 21.1526 14.2983 21.6103 13.1409 21.8404C12.4826 21.9713 11.8175 22.02 11.1471 21.9926C8.90852 21.901 6.92961 21.1378 5.23693 19.6682C3.71536 18.3472 2.73133 16.6919 2.2578 14.7339C2.15434 14.3062 2.08771 13.8719 2.04477 13.4337C2.00204 12.9975 1.99067 12.5603 2.00736 12.123C2.10491 9.56631 3.18744 7.13271 5.17087 5.37783C6.33389 4.34887 7.67246 3.65315 9.17908 3.28002C9.70365 3.15011 10.2354 3.06758 10.7745 3.0277C11.1216 3.00197 11.4691 2.99249 11.8163 3.00642C13.1649 3.06058 14.4311 3.41118 15.6088 4.07453C15.8609 4.21655 16.1053 4.37023 16.3424 4.5363C16.711 4.79453 17.2033 4.74853 17.5083 4.43081C17.612 4.3227 17.6867 4.19475 17.7062 4.04799C17.7587 3.65373 18.1059 3.31094 18.5873 3.31495C18.6963 3.31584 18.8055 3.31558 18.9145 3.31533L19.0685 3.31509L19.5713 3.31511C20.0745 3.31514 20.5776 3.31516 21.0808 3.31495C21.2204 3.31495 21.3585 3.32639 21.4866 3.38632C21.8163 3.54058 21.9982 3.79451 21.9982 4.16515C21.9985 6.23938 21.9985 8.31364 21.9984 10.3879ZM7.0001 12.2295C7.03418 14.8647 9.26405 17 11.9993 17C14.7581 17 17 14.8313 17 12.1683C17 11.3889 16.209 10.7861 15.3581 11.0726C14.8656 11.2386 14.5949 11.7311 14.581 12.2346C14.5311 14.0723 12.4126 15.4225 10.3987 14.1863C9.70705 13.7616 9.39892 12.9868 9.41764 12.1952C9.4354 11.4264 8.68379 10.8199 7.85298 11.049C7.32839 11.1937 6.99338 11.7028 7.0001 12.2295Z" fill="#050505"/>
</svg>
