<svg width="24" height="24" viewBox="0 0 24 24" fill="none" xmlns="http://www.w3.org/2000/svg">
<path d="M18.5656 3.31449C18.1426 3.31496 17.7815 3.60981 17.7147 4.01027C17.6118 4.62851 16.8658 4.90514 16.3395 4.5341C15.0212 3.60468 13.3723 3 11.4927 3C9.99487 3 8.57581 3.33925 7.31323 3.94905C6.91614 4.14111 6.53357 4.36029 6.16968 4.60373C4.90466 5.45187 3.8573 6.59673 3.12988 7.95328C2.90649 8.36683 2.71375 8.80373 2.55371 9.25467C2.19519 10.2603 2 11.3528 2 12.5005C2 17.8486 6.27014 22 11.4927 22C13.3723 22 15.0217 21.3953 16.34 20.4664C16.8663 20.0958 17.6118 20.3715 17.7147 20.9893C17.7815 21.3897 18.1421 21.6846 18.5656 21.6846H21.1384C21.6146 21.6846 22 21.3149 22 20.8594V4.13973C22 3.68365 21.6141 3.31449 21.1384 3.31449H18.5656ZM17.4286 11.4088C17.4286 14.831 13.8079 16.8704 12.257 17.7439L12.2555 17.7447C12.1625 17.7971 12.0768 17.8454 12 17.8894C11.9227 17.8451 11.8363 17.7965 11.7427 17.7437C10.1918 16.8702 6.57141 14.831 6.57141 11.4088C6.57141 9.59421 7.92859 8.29808 9.55713 8.29808C10.5669 8.29808 11.4572 8.81653 12 9.33498C12.5428 8.81653 13.4331 8.29808 14.4429 8.29808C16.0918 8.29808 17.4286 9.59421 17.4286 11.4088Z" fill="#050505"/>
</svg>
