<svg width="24" height="24" viewBox="0 0 24 24" fill="none" xmlns="http://www.w3.org/2000/svg">
<path d="M2.24283 6.8543L11.4895 1.30855C11.8062 1.1186 12.2019 1.11867 12.5185 1.30873L21.7573 6.85428C21.9079 6.94465 22 7.10738 22 7.28298V20C22 20.5523 21.5523 21 21 21H3C2.44772 21 2 20.5523 2 20V7.2831C2 7.10743 2.09218 6.94466 2.24283 6.8543ZM4 8.13256V19H20V8.13209L12.0037 3.33232L4 8.13256ZM12.0597 13.6983L17.3556 9.23527L18.6444 10.7647L12.074 16.3017L5.36401 10.7717L6.63599 9.22825L12.0597 13.6983Z" fill="#050505"/>
</svg>
