<svg width="24" height="24" viewBox="0 0 24 24" fill="none" xmlns="http://www.w3.org/2000/svg">
<path fill-rule="evenodd" clip-rule="evenodd" d="M6 11C6 10.4477 5.55229 10 5 10H2C1.44772 10 1 10.4477 1 11V20C1 20.5523 1.44772 21 2 21H5C5.43239 21 5.80069 20.7256 5.93912 20.3421C7.84978 21.3968 10.2093 22 13 22C17.3219 22 21.1513 19.972 23.5161 16.8514C22.7124 15.1653 20.9923 14 19 14L15.8539 13.9997C15.0299 13.0793 13.8326 12.5 12.5 12.5L10.33 12.4995C9.13864 11.5604 7.63477 11 6 11ZM6 18.022L6.00101 13C7.39924 13.0003 8.66335 13.5745 9.57059 14.4999L12.5 14.5L12.6644 14.5053C13.5881 14.5653 14.3751 15.1269 14.7556 15.9205L14.79 15.999L8 16V18H17V17C17 16.6563 16.9615 16.3216 16.8885 16H19L19.205 16.0069C19.8156 16.0484 20.3848 16.2736 20.8488 16.6366L20.968 16.737L20.8351 16.8706C18.7986 18.8444 16.004 20 13 20C10.1781 20 7.83918 19.3149 6.04536 18.0545L6 18.022ZM3 12H4V19H3V12Z" fill="#050505"/>
<path fill-rule="evenodd" clip-rule="evenodd" d="M19 0H11C9.89543 0 9 0.895431 9 2V9C9 10.1046 9.89543 11 11 11H19C20.1046 11 21 10.1046 21 9V2C21 0.895431 20.1046 0 19 0ZM14 2H11V9H19V2H16V6H14V2Z" fill="#050505"/>
</svg>
