<svg width="24" height="24" viewBox="0 0 24 24" fill="none" xmlns="http://www.w3.org/2000/svg">
<path d="M18.3638 15.5354L16.9496 14.1212L18.3638 12.707C20.3164 10.7544 20.3164 7.5886 18.3638 5.63598C16.4112 3.68335 13.2453 3.68335 11.2927 5.63598L9.87849 7.05019L8.46428 5.63598L9.87849 4.22176C12.6122 1.48809 17.0443 1.48809 19.778 4.22176C22.5117 6.95543 22.5117 11.3875 19.778 14.1212L18.3638 15.5354ZM15.5353 18.3639L14.1211 19.7781C11.3875 22.5117 6.95531 22.5117 4.22164 19.7781C1.48797 17.0444 1.48797 12.6122 4.22164 9.87862L5.63585 8.4644L7.05007 9.87862L5.63585 11.2928C3.68323 13.2454 3.68323 16.4112 5.63585 18.3639C7.58847 20.3165 10.7543 20.3165 12.7069 18.3639L14.1211 16.9496L15.5353 18.3639ZM14.8282 7.7573L16.2425 9.17151L9.17139 16.2425L7.75717 14.8283L14.8282 7.7573Z" fill="#050505"/>
</svg>
