<svg width="24" height="24" viewBox="0 0 24 24" fill="none" xmlns="http://www.w3.org/2000/svg">
<g clip-path="url(#clip0_8842_9766)">
<path d="M4.74264 21.2427C5.57107 21.2427 6.24264 21.9142 6.24264 22.7427C6.24264 23.5711 5.57107 24.2427 4.74264 24.2427C3.91422 24.2427 3.24264 23.5711 3.24264 22.7427C3.24264 21.9142 3.91422 21.2427 4.74264 21.2427ZM17.7427 21.2427C18.5711 21.2427 19.2427 21.9142 19.2427 22.7427C19.2427 23.5711 18.5711 24.2427 17.7427 24.2427C16.9142 24.2427 16.2427 23.5711 16.2427 22.7427C16.2427 21.9142 16.9142 21.2427 17.7427 21.2427ZM1.41422 3L5.242 6.828V18.242L19.2427 18.2427V20.2427H4.24264C3.69036 20.2427 3.24264 19.7949 3.24264 19.2427L3.242 7.656L0 4.41422L1.41422 3ZM15.2427 4.24264C15.7949 4.24264 16.2427 4.69036 16.2427 5.24264L16.242 7.242L19.2358 7.24264C19.7919 7.24264 20.2427 7.69831 20.2427 8.23804V16.2473C20.2427 16.797 19.7927 17.2427 19.2358 17.2427H7.24949C6.69342 17.2427 6.24264 16.787 6.24264 16.2473V8.23804C6.24264 7.6883 6.69259 7.24264 7.24949 7.24264L10.242 7.242L10.2427 5.24264C10.2427 4.69036 10.6904 4.24264 11.2427 4.24264H15.2427ZM9.242 9.242L8.24264 9.24264V15.2427L9.242 15.242V9.242ZM15.242 9.242H11.242V15.242H15.242V9.242ZM18.2427 9.24264L17.242 9.242V15.242L18.2427 15.2427V9.24264ZM14.2427 6.24264H12.2427V7.24264H14.2427V6.24264Z" fill="#050505"/>
</g>
<defs>
<clipPath id="clip0_8842_9766">
<rect width="24" height="24" fill="white"/>
</clipPath>
</defs>
</svg>
