<svg width="24" height="24" viewBox="0 0 24 24" fill="none" xmlns="http://www.w3.org/2000/svg">
<path d="M6.34323 14.7281L3.5148 17.5566L7.05033 21.0921L20.4854 7.65702L16.9498 4.12149L14.8285 6.24281L16.2427 7.65702L14.8285 9.07124L13.4143 7.65702L11.293 9.77834L13.4143 11.8997L12.0001 13.3139L9.87876 11.1926L7.75744 13.3139L9.17165 14.7281L7.75744 16.1423L6.34323 14.7281ZM17.6569 2.00017L22.6067 6.94992C22.9972 7.34044 22.9972 7.9736 22.6067 8.36413L7.75744 23.2134C7.36692 23.6039 6.73375 23.6039 6.34323 23.2134L1.39348 18.2637C1.00295 17.8731 1.00295 17.24 1.39348 16.8495L16.2427 2.00017C16.6332 1.60964 17.2664 1.60964 17.6569 2.00017Z" fill="#050505"/>
</svg>
