<svg width="24" height="24" viewBox="0 0 24 24" fill="none" xmlns="http://www.w3.org/2000/svg">
<path d="M7.00488 7.99963V5.99963C7.00488 3.23821 9.24346 0.999634 12.0049 0.999634C14.7663 0.999634 17.0049 3.23821 17.0049 5.99963V7.99963H20.0049C20.5572 7.99963 21.0049 8.44735 21.0049 8.99963V20.9997C21.0049 21.5519 20.5572 21.9997 20.0049 21.9997H4.00488C3.4526 21.9997 3.00488 21.5519 3.00488 20.9997V8.99963C3.00488 8.44735 3.4526 7.99963 4.00488 7.99963H7.00488ZM7.00488 9.99963H5.00488V19.9997H19.0049V9.99963H17.0049V11.9997H15.0049V9.99963H9.00488V11.9997H7.00488V9.99963ZM9.00488 7.99963H15.0049V5.99963C15.0049 4.34278 13.6617 2.99963 12.0049 2.99963C10.348 2.99963 9.00488 4.34278 9.00488 5.99963V7.99963Z" fill="#050505"/>
</svg>
