<svg width="24" height="24" viewBox="0 0 24 24" fill="none" xmlns="http://www.w3.org/2000/svg">
<path d="M7.00488 5.99963V7.99963H4.00488C3.4526 7.99963 3.00488 8.44735 3.00488 8.99963V13H5.00488V9.99963H7.00488V11.9997H9.00488V9.99963H15.0049V11.9997H17.0049V9.99963H19.0049V19.9997H12V21.9997H20.0049C20.5572 21.9997 21.0049 21.5519 21.0049 20.9997V8.99963C21.0049 8.44735 20.5572 7.99963 20.0049 7.99963H17.0049V5.99963C17.0049 3.23821 14.7663 0.999634 12.0049 0.999634C9.24346 0.999634 7.00488 3.23821 7.00488 5.99963ZM15.0049 7.99963H9.00488V5.99963C9.00488 4.34278 10.348 2.99963 12.0049 2.99963C13.6617 2.99963 15.0049 4.34278 15.0049 5.99963V7.99963Z" fill="#050505"/>
<path d="M5 23H7V20H10V18H7V15H5V18H2V20H5V23Z" fill="#050505"/>
</svg>
