<svg width="24" height="24" viewBox="0 0 24 24" fill="none" xmlns="http://www.w3.org/2000/svg">
<path d="M21.9983 13.9544C21.998 16.0804 21.9978 18.2065 22.0001 20.3324C22.0006 20.6894 21.786 20.9922 21.4756 21.1188C21.3826 21.1567 21.2859 21.1787 21.1853 21.1825C21.1634 21.1833 21.1416 21.184 21.1197 21.184L20.3194 21.1839C19.7405 21.1839 19.1615 21.1839 18.5825 21.1842C18.3295 21.1844 18.1119 21.1003 17.9333 20.9193C17.8135 20.7976 17.7416 20.6513 17.7132 20.484C17.651 20.1148 17.3508 19.8658 17.0156 19.8121C16.763 19.7716 16.5344 19.8301 16.3254 19.9763C15.3589 20.6526 14.2983 21.1103 13.1409 21.3404C12.4825 21.4713 11.8175 21.5201 11.1471 21.4926C8.90855 21.401 6.92955 20.6378 5.23692 19.1682C3.71532 17.8472 2.73131 16.1919 2.2578 14.2339C2.15428 13.8062 2.08775 13.3719 2.04478 12.9337C2.00206 12.4975 1.99071 12.0603 2.00731 11.623C2.10484 9.06631 3.18736 6.63271 5.17088 4.87784C6.33385 3.84887 7.67247 3.15314 9.17906 2.78002C9.7036 2.65011 10.2355 2.56758 10.7745 2.5277C11.1216 2.50197 11.4691 2.49249 11.8163 2.50642C13.1649 2.56058 14.431 2.91118 15.6087 3.57453C15.8608 3.71654 16.1053 3.87023 16.3424 4.03631C16.711 4.29453 17.2032 4.24853 17.5083 3.93082C17.612 3.82269 17.6866 3.69475 17.7062 3.548C17.7586 3.15373 18.1058 2.81094 18.5873 2.81495C18.6963 2.81583 18.8054 2.81558 18.9145 2.81533L19.0685 2.81509L21.0808 2.81495C21.2204 2.81495 21.3585 2.82639 21.4866 2.88632C21.8163 3.04058 21.9982 3.29451 21.9982 3.66515L21.9983 13.9544ZM19.9964 4.81937L19.9704 4.8177C19.9545 4.8166 19.9403 4.81562 19.9261 4.81557L19.7633 4.8157C19.645 4.81594 19.5267 4.81618 19.4086 4.81434C19.3611 4.81361 19.3345 4.82884 19.3103 4.87003C19.2073 5.04442 19.0856 5.20561 18.9404 5.34697C18.2287 6.04073 17.3729 6.28867 16.3994 6.15358C15.9389 6.08971 15.5255 5.90542 15.1434 5.64027C14.0951 4.9129 12.9298 4.53555 11.6548 4.50238C10.9612 4.48437 10.2764 4.55917 9.60484 4.73444C7.83165 5.1973 6.40208 6.16736 5.3452 7.66692C4.48778 8.88368 4.05882 10.2487 4.00474 11.7331C3.97972 12.4187 4.04552 13.0966 4.20286 13.7652C4.78099 16.2223 6.55235 18.2073 8.92662 19.0575C9.66868 19.3232 10.4337 19.4671 11.2215 19.4954C11.6969 19.5124 12.1688 19.4844 12.6367 19.4005C13.5543 19.236 14.3956 18.8852 15.1595 18.3514C15.8216 17.8889 16.5549 17.7228 17.3468 17.8493C18.1918 17.9844 18.8606 18.4054 19.3165 19.1415C19.3374 19.175 19.3601 19.1865 19.3985 19.1861C19.4576 19.1855 19.5167 19.1852 19.5759 19.1851L19.9454 19.185C19.9564 19.185 19.9673 19.1833 19.9791 19.1814L19.9966 19.1788L19.9964 4.81937Z" fill="#050505"/>
<path d="M12.1239 17.319L12 17.3894C11.9245 17.3461 11.8402 17.2986 11.7489 17.2472L11.7427 17.2437C10.1918 16.3702 6.57141 14.331 6.57141 10.9088C6.57141 9.09421 7.92859 7.79808 9.55713 7.79808C10.5669 7.79808 11.4572 8.31653 12 8.83498C12.5428 8.31653 13.4331 7.79808 14.4429 7.79808C16.0918 7.79808 17.4286 9.09421 17.4286 10.9088C17.4286 14.331 13.8079 16.3704 12.257 17.2439L12.1239 17.319ZM9.95486 13.5838C10.599 14.1974 11.3415 14.6906 12 15.0838C12.6584 14.6906 13.4009 14.1974 14.045 13.5839C14.9376 12.7337 15.4286 11.8564 15.4286 10.9088C15.4286 10.1622 14.951 9.79808 14.4429 9.79808C14.2811 9.79808 14.0943 9.84014 13.8921 9.9345C13.6868 10.0303 13.507 10.1613 13.3813 10.2813L12 11.6006L10.6187 10.2813C10.493 10.1613 10.3132 10.0303 10.1079 9.9345C9.90572 9.84014 9.71885 9.79808 9.55713 9.79808C9.06061 9.79808 8.57141 10.1711 8.57141 10.9088C8.57141 11.8565 9.06236 12.7337 9.95486 13.5838Z" fill="#050505"/>
</svg>
