<svg width="24" height="24" viewBox="0 0 24 24" fill="none" xmlns="http://www.w3.org/2000/svg">
<path d="M11.9993 17C9.26405 17 7.03418 14.8647 7.0001 12.2295C6.99338 11.7028 7.32839 11.1937 7.85298 11.049C8.68379 10.8199 9.4354 11.4264 9.41764 12.1952C9.39892 12.9868 9.70705 13.7616 10.3987 14.1863C12.4126 15.4225 14.5311 14.0723 14.581 12.2346C14.5949 11.7311 14.8656 11.2386 15.3581 11.0726C16.209 10.7861 17 11.3889 17 12.1683C17 14.8313 14.7581 17 11.9993 17Z" fill="#050505"/>
<path d="M21.9982 14.4544L21.9984 10.3879C21.9985 8.31364 21.9985 6.23938 21.9982 4.16515C21.9982 3.79451 21.8163 3.54058 21.4866 3.38632C21.3585 3.32639 21.2204 3.31495 21.0808 3.31495C20.5776 3.31516 20.0745 3.31514 19.5713 3.31511L19.0685 3.31509L18.9145 3.31533C18.8055 3.31558 18.6963 3.31584 18.5873 3.31495C18.1059 3.31094 17.7587 3.65373 17.7062 4.04799C17.6867 4.19475 17.612 4.3227 17.5083 4.43081C17.2033 4.74853 16.711 4.79453 16.3424 4.5363C16.1053 4.37023 15.8609 4.21655 15.6088 4.07453C14.4311 3.41118 13.1649 3.06058 11.8163 3.00642C11.4691 2.99249 11.1216 3.00197 10.7745 3.0277C10.2354 3.06758 9.70365 3.15011 9.17908 3.28002C7.67246 3.65315 6.33389 4.34887 5.17087 5.37783C3.18744 7.13271 2.10491 9.56631 2.00736 12.123C1.99067 12.5603 2.00204 12.9975 2.04477 13.4337C2.08771 13.8719 2.15434 14.3062 2.2578 14.7339C2.73133 16.6919 3.71536 18.3472 5.23693 19.6682C6.92961 21.1378 8.90852 21.901 11.1471 21.9926C11.8175 22.02 12.4826 21.9713 13.1409 21.8404C14.2983 21.6103 15.3589 21.1526 16.3254 20.4763C16.5345 20.3301 16.7631 20.2716 17.0156 20.3121C17.3508 20.3658 17.651 20.6148 17.7133 20.984C17.7416 21.1513 17.8135 21.2976 17.9334 21.4192C18.1119 21.6003 18.3295 21.6844 18.5825 21.6843C19.1615 21.6839 19.7405 21.6839 20.3194 21.6839L21.1197 21.684C21.1416 21.684 21.1635 21.6833 21.1853 21.6825C21.2859 21.6787 21.3826 21.6567 21.4756 21.6188C21.786 21.4922 22.0006 21.1894 22.0001 20.8324C21.9977 18.7065 21.998 16.5804 21.9982 14.4544ZM19.9704 5.31769L19.9965 5.31937L19.9966 19.6788C19.9905 19.6796 19.9847 19.6805 19.9791 19.6814C19.9673 19.6833 19.9564 19.685 19.9454 19.685C19.8818 19.6852 19.8182 19.6851 19.7546 19.6851C19.6359 19.685 19.5173 19.6849 19.3986 19.6861C19.3601 19.6865 19.3374 19.675 19.3166 19.6415C18.8606 18.9054 18.1918 18.4844 17.3469 18.3493C16.5549 18.2228 15.8216 18.3889 15.1596 18.8514C14.3956 19.3852 13.5544 19.736 12.6368 19.9005C12.1689 19.9844 11.6969 20.0124 11.2215 19.9954C10.4337 19.9671 9.66865 19.8232 8.92661 19.5575C6.55231 18.7073 4.78104 16.7223 4.20289 14.2652C4.04555 13.5966 3.97972 12.9187 4.00472 12.2331C4.05882 10.7487 4.48773 9.38369 5.34527 8.16692C6.40213 6.66736 7.83161 5.6973 9.60486 5.23443C10.2764 5.05917 10.9612 4.98437 11.6548 5.00238C12.9299 5.03555 14.0951 5.4129 15.1435 6.14026C15.5256 6.40542 15.939 6.58972 16.3994 6.65358C17.3729 6.78867 18.2288 6.54073 18.9405 5.84697C19.0855 5.70561 19.2072 5.54442 19.3102 5.37003C19.3345 5.32884 19.3611 5.31361 19.4085 5.31434C19.5268 5.31618 19.645 5.31594 19.7633 5.3157C19.8176 5.31559 19.8719 5.31548 19.9262 5.31557C19.9403 5.31562 19.9545 5.3166 19.9704 5.31769Z" fill="#050505"/>
</svg>
